<?xml version="1.0" encoding="UTF-8" standalone="no"?>
<!-- Created with Inkscape (http://www.inkscape.org/) -->

<svg
   width="25mm"
   height="25mm"
   viewBox="0 0 24.999999 25"
   version="1.1"
   id="svg11379"
   xmlns="http://www.w3.org/2000/svg"
   xmlns:svg="http://www.w3.org/2000/svg">
  <defs
     id="defs11376" />
  <g
     id="layer1"
     transform="translate(-57.654103,-66.226726)">
    <path
       id="path7085"
       style="font-weight:bold;font-size:85.3333px;line-height:1.25;font-family:Ubuntu;-inkscape-font-specification:'Ubuntu Bold';white-space:pre;shape-inside:url(#rect2805);fill:#a500ff;fill-opacity:1;stroke:#000000;stroke-width:1;stroke-linejoin:round;stroke-miterlimit:4;stroke-dasharray:none"
       d="m 66.873858,70.449697 a 2,2 0 0 0 -2.077224,1.9198 c -0.191882,4.858776 -0.383886,9.717756 -0.57577,14.576567 a 2,2 0 0 0 1.919801,2.077219 l 2.462143,0.09714 a 2,2 0 0 0 2.077224,-1.919805 l 0.175621,-4.453404 c 1.394354,0.05506 2.788718,0.110327 4.183017,0.165391 a 2,2 0 0 0 2.077225,-1.919802 c 0.02498,-0.632641 0.05004,-1.265237 0.07503,-1.898027 a 2,2 0 0 0 -1.919803,-2.077227 c -1.39431,-0.05506 -2.788665,-0.110329 -4.183017,-0.165388 l 0.01342,-0.332062 c 1.650068,0.06519 3.300129,0.130636 4.950212,0.195799 a 2,2 0 0 0 2.077222,-1.9198 c 0.02498,-0.632422 0.05007,-1.264845 0.07505,-1.89751 a 2,2 0 0 0 -1.919804,-2.077225 c -3.136888,-0.12388 -6.273443,-0.247786 -9.410347,-0.371666 z" />
  </g>
</svg>
