<?xml version="1.0" encoding="UTF-8" standalone="no"?>
<!-- Created with Inkscape (http://www.inkscape.org/) -->

<svg
   width="147.57188mm"
   height="22.319527mm"
   viewBox="0 0 147.57188 22.319527"
   version="1.1"
   id="svg5"
   xmlns="http://www.w3.org/2000/svg"
   xmlns:svg="http://www.w3.org/2000/svg">
  <defs
     id="defs2">
    <linearGradient
       id="linearGradient10851">
      <stop
         style="stop-color:#1b00ff;stop-opacity:1;"
         offset="0"
         id="stop10849" />
    </linearGradient>
    <rect
       x="92.54908"
       y="220.50198"
       width="623.4007"
       height="216.61951"
       id="rect2805" />
  </defs>
  <g
     id="layer1"
     transform="translate(-23.632931,-60.262403)">
    <g
       aria-label="Falfestékbolt"
       transform="scale(0.26458333)"
       id="text2803"
       style="font-weight:bold;font-size:85.3333px;line-height:1.25;font-family:Ubuntu;-inkscape-font-specification:'Ubuntu Bold';white-space:pre;shape-inside:url(#rect2805)">
      <path
         id="path7085"
         style="fill:#a500ff;fill-opacity:1;stroke:#000000;stroke-width:3.77953;stroke-linejoin:round;stroke-miterlimit:4;stroke-dasharray:none"
         d="m 104.16016,230.90039 a 7.5590552,7.5590552 0 0 0 -8.138676,6.93164 c -1.469235,18.31937 -2.938956,36.63949 -4.408203,54.95899 a 7.5590552,7.5590552 0 0 0 6.931641,8.13867 l 9.283198,0.74414 a 7.5590552,7.5590552 0 0 0 8.13868,-6.93164 l 1.3457,-16.79102 c 5.25723,0.42161 10.51446,0.84401 15.77148,1.26563 a 7.5590552,7.5590552 0 0 0 8.13868,-6.93164 c 0.1913,-2.38529 0.38286,-4.7704 0.57422,-7.15625 a 7.5590552,7.5590552 0 0 0 -6.93165,-8.13868 c -5.25706,-0.42162 -10.51426,-0.84401 -15.77148,-1.26562 l 0.10156,-1.25195 c 6.22136,0.49906 12.44265,0.99908 18.66407,1.49804 a 7.5590552,7.5590552 0 0 0 8.13867,-6.93164 c 0.19123,-2.38446 0.38291,-4.76891 0.57422,-7.15429 a 7.5590552,7.5590552 0 0 0 -6.93165,-8.13868 c -11.82722,-0.94855 -23.65318,-1.89715 -35.48046,-2.8457 z" />
      <path
         id="path7087"
         d="m 163.80859,254.03125 c -3.99013,0.0307 -8.34131,0.24391 -12.63281,1.13477 a 6.0472442,6.0472442 0 0 0 -4.76367,6.74218 c 0.23923,1.74849 0.35109,3.75622 0.67773,5.86524 a 6.0472442,6.0472442 0 0 0 6.98047,5.03711 c 3.16647,-0.53295 6.10072,-0.63357 8.9043,-0.41211 -4.30018,-0.0931 -8.95809,0.2415 -13.33789,2.28125 a 6.0472442,6.0472442 0 0 0 -0.16016,0.0781 c -4.22455,2.12044 -8.02995,6.41191 -8.69336,11.83985 -0.77406,4.72359 -0.32709,10.95152 3.92578,15.53125 4.00283,4.30744 9.72003,5.55189 13.68946,6.14843 a 6.0472442,6.0472442 0 0 0 0.11523,0.0156 c 4.54217,0.59255 9.05909,0.58893 13.32617,0.38867 a 6.0472442,6.0472442 0 0 0 0.1875,-0.0117 c 2.99302,-0.2332 6.07656,-0.56026 9.12891,-1.05469 a 6.0472442,6.0472442 0 0 0 5.07617,-5.72656 c 0.35656,-8.87299 0.97816,-17.84734 1.23242,-26.86719 a 6.0472442,6.0472442 0 0 0 0.002,-0.2539 c -0.0613,-4.41859 -0.97764,-10.39708 -5.43946,-14.68555 -4.59316,-4.42386 -10.93888,-5.57534 -15.625,-5.92578 -0.80634,-0.0629 -1.59585,-0.10109 -2.35742,-0.125 a 6.0472442,6.0472442 0 0 0 -0.38281,0.14844 z m -23.02539,32.56641 c 0.0127,-0.0775 0.0101,-0.16946 0.0234,-0.2461 l -0.0508,0.35352 c 0.004,-0.0379 0.0227,-0.0697 0.0273,-0.10742 z m 34.8086,-12.12305 0.46289,0.16601 0.35937,0.16993 A 6.0472442,6.0472442 0 0 0 175.55664,274.5 Z m -12.67188,14.04297 c 0.67371,-0.0426 1.61431,-0.0167 2.75586,0.004 0.40222,0.0435 0.90517,0.17706 1.3125,0.2461 -0.043,0.86398 -0.0859,1.72785 -0.1289,2.5918 -1.98439,0.0313 -3.82212,-0.0642 -5.66797,-0.64258 l 0.0449,0.0156 c -0.31757,-0.10221 -0.33985,-0.0156 -0.33985,-0.0156 a 6.0472442,6.0472442 0 0 0 -0.0996,-0.45118 c -0.12035,-0.46371 0.11328,-1.17578 0.11328,-1.17578 a 6.0472442,6.0472442 0 0 0 0.20898,-0.11523 c 0.5013,-0.28555 1.04351,-0.40915 1.80078,-0.45703 z"
         style="fill:#ff006b;fill-opacity:1;stroke:#000000;stroke-width:3.77953;stroke-linejoin:round;stroke-miterlimit:4;stroke-dasharray:none" />
      <path
         id="path7089"
         d="m 201.13867,231.56641 c -1.57854,0.19222 -3.15831,0.38352 -4.74023,0.57617 a 7.5590552,7.5590552 0 0 0 -6.63867,7.21875 c -0.59584,15.74224 -1.25391,31.51097 -1.79297,47.2832 a 7.5590552,7.5590552 0 0 0 -0.004,0.3457 c 0.0315,2.72579 0.0876,8.71975 4.53516,12.91602 a 7.5590552,7.5590552 0 0 0 0.0781,0.0742 c 3.87356,3.55179 8.85906,4.49826 12.01758,4.95117 a 7.5590552,7.5590552 0 0 0 8.46875,-5.92187 c 0.22019,-1.04406 0.44011,-2.08747 0.66016,-3.13086 a 7.5590552,7.5590552 0 0 0 -4.70313,-8.62305 c -0.62465,-0.23816 -0.88086,-0.66992 -0.88086,-0.66992 a 7.5590552,7.5590552 0 0 0 -0.0605,-0.31836 c -0.51737,-2.44345 0.0268,-4.78328 0.043,-8.59375 l -0.006,0.25976 c 0.49644,-12.85716 0.99378,-25.71474 1.49024,-38.57226 a 7.5590552,7.5590552 0 0 0 -8.4668,-7.79492 z"
         style="fill:#ff0023;fill-opacity:1;stroke:#000000;stroke-width:3.77953;stroke-linejoin:round;stroke-miterlimit:4;stroke-dasharray:none" />
      <path
         id="path7091"
         d="m 238.69141,230.29102 c -4.85261,0.061 -11.47734,1.0305 -16.43555,5.875 a 7.5590552,7.5590552 0 0 0 -0.0391,0.0391 c -5.09052,5.04719 -6.30406,12.03676 -6.16407,17.4414 l -0.002,-0.19531 c 0,14.20768 -2e-5,28.41536 0,42.62305 a 7.5590552,7.5590552 0 0 0 7.5586,7.55859 h 4.71484 a 7.5590552,7.5590552 0 0 0 7.55859,-7.55859 v -26.74414 h 8.14258 a 7.5590552,7.5590552 0 0 0 7.55859,-7.5586 v -2.58203 a 7.5590552,7.5590552 0 0 0 -7.55859,-7.55859 h -8.02734 c 0.0131,-0.13926 -0.007,-0.33655 0.01,-0.47461 0.16695,-1.30687 0.61215,-1.92264 0.96485,-2.14844 a 7.5590552,7.5590552 0 0 0 0.1289,-0.084 c 1.18697,-0.79453 3.31005,-1.02574 6.17774,-0.40625 a 7.5590552,7.5590552 0 0 0 8.93945,-5.5957 c 0.19857,-0.81317 0.39713,-1.62627 0.5957,-2.43946 a 7.5590552,7.5590552 0 0 0 -5.49414,-9.12109 c -2.6797,-0.67657 -5.59312,-1.11537 -8.6289,-1.07031 z"
         style="fill:#ff0000;stroke:#000000;stroke-width:3.64724;stroke-linejoin:round;stroke-miterlimit:4;stroke-dasharray:none" />
      <path
         id="path7093"
         d="m 274.64844,252.43359 -0.17578,0.002 c 0.0219,-6.3e-4 0.0445,0.006 0.0664,0.006 0.0364,-3.3e-4 0.073,-0.008 0.10938,-0.008 z m -0.10938,0.008 c -1.1769,0.0104 -2.35924,0.0841 -3.53515,0.23047 -7.91593,0.91657 -15.4194,5.95348 -18.96875,13.375 -2.6767,5.32719 -3.24986,11.21617 -2.60743,16.5 0.61473,6.00953 2.82472,13.17185 8.47071,18.16015 a 7.5590552,7.5590552 0 0 0 0.0645,0.0566 c 5.50049,4.75175 12.7424,6.21625 18.9082,5.87891 5.52614,-0.25992 10.78431,-1.65523 15.45508,-3.32422 a 7.5590552,7.5590552 0 0 0 4.73047,-9.18164 c -0.22914,-0.80834 -0.4581,-1.61658 -0.6875,-2.42578 a 7.5590552,7.5590552 0 0 0 -9.7793,-5.07032 c -3.54712,1.24593 -7.11795,1.87471 -10.56445,1.75391 -1.2119,-0.0824 -2.28889,-0.35797 -3.1875,-0.78125 6.28649,-0.71247 12.57309,-1.42416 18.85938,-2.13672 a 7.5590552,7.5590552 0 0 0 6.67773,-8.1914 c -0.48391,-5.3673 -2.01418,-12.22135 -6.50977,-17.47266 a 7.5590552,7.5590552 0 0 0 -0.0645,-0.0742 c -4.40941,-5.0177 -11.08022,-7.45496 -17.26172,-7.29687 z m 2.33203,54.20117 c -0.0114,5.3e-4 -0.0218,0.003 -0.0332,0.004 l 0.0723,-0.004 c -0.0126,7e-4 -0.0265,-6.9e-4 -0.0391,0 z m -27.44336,-24.0957 c -0.003,-0.0258 -0.0111,-0.0543 -0.0137,-0.0801 l 0.0195,0.18164 c -0.004,-0.033 -0.002,-0.0685 -0.006,-0.10156 z m 2.60743,-16.5 c 0.0217,-0.0433 0.0307,-0.0896 0.0527,-0.13282 l -0.0957,0.19727 c 0.0112,-0.0236 0.0317,-0.0409 0.043,-0.0645 z m 18.96875,-13.375 c 0.007,-8.6e-4 0.0141,-0.005 0.0215,-0.006 l -0.0898,0.01 c 0.0227,-0.003 0.0456,-0.001 0.0684,-0.004 z m 2.86914,17.38671 c 1.12597,-0.10428 2.17432,0.43373 2.96484,1.1875 -2.25126,0.25341 -4.49893,0.50381 -6.74805,0.75977 0.69103,-1.0469 1.90032,-1.82847 3.54883,-1.92969 a 7.5590552,7.5590552 0 0 0 0.23438,-0.0176 z"
         style="fill:#ff5500;fill-opacity:1;stroke:#000000;stroke-width:3.77953;stroke-linejoin:round;stroke-miterlimit:4;stroke-dasharray:none" />
      <path
         id="path7095"
         d="m 322.91406,247.625 c -4.6742,-0.19046 -11.24844,0.41892 -16.27539,5.07227 -4.6076,4.23882 -5.28547,10.70711 -4.77539,14.88476 a 7.5590552,7.5590552 0 0 0 0.0117,0.084 c 0.67543,5.05581 3.85715,9.14135 7.77734,11.46093 3.82272,2.41765 7.20107,3.52473 9.82618,5.125 -2.32955,-0.004 -4.78115,-0.32373 -7.48633,-1.0625 -0.62489,-0.18586 -1.27454,-0.40683 -1.98828,-0.66797 a 7.5590552,7.5590552 0 0 0 -9.8711,5.04493 c -0.22521,0.79695 -0.4496,1.59318 -0.67383,2.38671 a 7.5590552,7.5590552 0 0 0 4.57032,9.11329 c 5.49855,2.10573 11.23837,2.70929 16.40039,2.75781 a 7.5590552,7.5590552 0 0 0 0.16406,0 c 3.8144,-0.0469 9.08511,-0.63584 13.53516,-3.56836 a 7.5590552,7.5590552 0 0 0 0.0254,-0.0176 c 3.61519,-2.40378 5.84099,-6.33393 6.35937,-10.37109 0.42472,-2.89958 0.51364,-7.27893 -1.58984,-11.15821 a 7.5590552,7.5590552 0 0 0 -0.25586,-0.4375 c -2.75903,-4.36152 -7.50107,-6.73431 -10.01563,-8.08593 a 7.5590552,7.5590552 0 0 0 -0.15429,-0.082 c -2.64741,-1.34489 -4.42306,-2.06225 -5.97461,-3.03125 0.29386,-0.0151 0.28633,-0.0417 0.67968,-0.0312 2.32252,0.13581 4.40639,0.47963 6.26172,1.11914 a 7.5590552,7.5590552 0 0 0 9.70118,-4.9668 c 0.20378,-0.6765 0.40747,-1.3526 0.61132,-2.0293 a 7.5590552,7.5590552 0 0 0 -5.01367,-9.40429 c -3.66528,-1.12838 -7.67174,-1.97335 -11.84765,-2.13477 z m 17.59961,40.24219 c -0.004,0.0283 3.1e-4,0.0735 -0.004,0.10156 l 0.0312,-0.22461 c -0.005,0.0415 -0.022,0.0816 -0.0274,0.12305 z m -30.86133,-8.74024 c -0.0601,-0.038 -0.10564,-0.0472 -0.16601,-0.0859 l 0.29687,0.18164 c -0.0462,-0.0267 -0.0848,-0.0685 -0.13086,-0.0957 z m -3.01367,-26.42968 c 0.006,-0.006 0.009,-0.0136 0.0156,-0.0195 l -0.0352,0.0332 c 0.006,-0.006 0.0134,-0.008 0.0195,-0.0137 z"
         style="fill:#ffe000;fill-opacity:1;stroke:#000000;stroke-width:3.77953;stroke-linejoin:round;stroke-miterlimit:4;stroke-dasharray:none" />
      <path
         id="path7097"
         d="m 357.53516,239.61328 c -1.5866,0.13023 -3.17148,0.26041 -4.75782,0.39063 a 7.5590552,7.5590552 0 0 0 -6.91796,6.95898 c -0.91101,11.94895 -1.9051,23.93833 -2.75,35.93945 a 7.5590552,7.5590552 0 0 0 -0.0156,0.3086 c -0.11106,3.75299 -0.14261,9.9495 3.66406,15.05078 a 7.5590552,7.5590552 0 0 0 0.0625,0.0801 c 3.77217,4.91525 9.54234,6.63153 13.91797,7.11718 3.60881,0.47117 7.5953,0.54576 11.61719,-0.30273 a 7.5590552,7.5590552 0 0 0 5.95898,-8.16211 c -0.0768,-0.75409 -0.15313,-1.51186 -0.23047,-2.27148 a 7.5590552,7.5590552 0 0 0 -8.23046,-6.75977 c -2.49251,0.23547 -4.24878,0.14397 -5.75391,-0.37305 -0.46189,-0.19505 -0.67336,-0.45197 -0.72266,-0.66406 a 7.5590552,7.5590552 0 0 0 -0.11523,-0.43359 c -0.87564,-2.95987 -0.0254,-5.52745 0.20508,-10.15821 l -0.0117,0.20899 0.48242,-6.20703 c 2.5639,0.19886 5.12789,0.39866 7.69141,0.59765 a 7.5590552,7.5590552 0 0 0 8.12304,-6.95312 c 0.0667,-0.85979 0.13275,-1.71589 0.19922,-2.57227 A 7.5590552,7.5590552 0 0 0 373,253.28516 c -2.56476,-0.19909 -5.12898,-0.39872 -7.69336,-0.59766 0.128,-1.65168 0.25658,-3.3037 0.38477,-4.95508 a 7.5590552,7.5590552 0 0 0 -8.15625,-8.11914 z m 3.20312,65.8457 c -0.0306,-0.004 -0.0652,-0.002 -0.0957,-0.006 l 0.18359,0.0215 c -0.0275,-0.003 -0.0603,-0.0126 -0.0879,-0.0156 z"
         style="fill:#f0ff00;fill-opacity:1;stroke:#000000;stroke-width:3.77953;stroke-linejoin:round;stroke-miterlimit:4;stroke-dasharray:none" />
      <path
         id="path7099"
         d="m 409.31641,235.39453 a 7.5590552,7.5590552 0 0 0 -5.59766,1.79492 c -2.61114,2.24248 -5.22118,4.48435 -7.83203,6.72657 a 7.5590552,7.5590552 0 0 0 -1.46289,9.77539 c 0.46682,0.73815 0.94923,1.29 1.43164,1.79492 -5.21192,0.99509 -10.21909,3.60414 -13.80469,7.8457 -3.94751,4.48891 -5.98689,10.05847 -6.69531,15.3457 -0.91629,5.96907 -0.57891,13.45323 3.62695,19.69922 a 7.5590552,7.5590552 0 0 0 0.0469,0.0684 c 4.12546,5.9818 10.76243,9.22246 16.8125,10.44922 5.41241,1.14027 10.85662,1.11719 15.80078,0.67774 a 7.5590552,7.5590552 0 0 0 6.88672,-7.69336 c -0.0182,-0.84068 -0.0365,-1.68131 -0.0547,-2.52149 a 7.5590552,7.5590552 0 0 0 -8.18555,-7.36914 c -3.74833,0.31277 -7.36398,0.0227 -10.66992,-0.96289 -1.15427,-0.38615 -2.13107,-0.92443 -2.89453,-1.5625 l 18.80078,2.68164 a 7.5590552,7.5590552 0 0 0 8.52539,-6.24414 c 0.88331,-5.31701 1.12798,-12.33686 -1.90039,-18.55078 a 7.5590552,7.5590552 0 0 0 -0.043,-0.0859 c -3.00482,-5.96819 -8.84916,-10.00959 -14.87304,-11.41211 -0.37067,-0.0928 -0.7542,-0.13561 -1.12891,-0.21484 a 7.5590552,7.5590552 0 0 0 0.21484,-0.0937 c 2.51503,-1.57097 5.03,-3.14198 7.54492,-4.71289 a 7.5590552,7.5590552 0 0 0 1.85938,-11.18164 c -0.40417,-0.49662 -0.80963,-0.99578 -1.2168,-1.4961 a 7.5590552,7.5590552 0 0 0 -5.1914,-2.75781 z m -2.08203,20.45703 c 0.036,0.009 0.0735,0.0124 0.10937,0.0215 l -0.16797,-0.041 c 0.0198,0.005 0.0388,0.0149 0.0586,0.0195 z m -11.39258,53.04297 c -0.01,-0.002 -0.0195,-0.002 -0.0293,-0.004 l 0.0723,0.0156 c -0.0141,-0.003 -0.0289,-0.009 -0.043,-0.0117 z m -20.48633,-30.2168 c 0.004,-0.0291 0.003,-0.0628 0.008,-0.0918 l -0.0254,0.17968 c 0.004,-0.0291 0.0137,-0.0588 0.0176,-0.0879 z m 6.69531,-15.3457 c 0.0256,-0.0291 0.0426,-0.0628 0.0684,-0.0918 l -0.14258,0.16407 c 0.0225,-0.0268 0.0516,-0.0456 0.0742,-0.0723 z m 21.64258,-8.15625 0.0879,0.0117 c -0.01,-0.001 -0.0195,0.001 -0.0293,0 -0.0198,-0.003 -0.0388,-0.009 -0.0586,-0.0117 z m -3.05469,17.42969 c 0.43979,-0.0226 0.87205,0.008 1.28906,0.0898 a 7.5590552,7.5590552 0 0 0 0.23047,0.041 c 1.11552,0.18252 1.99474,0.96838 2.57032,1.89648 -2.2564,-0.32357 -4.50877,-0.64824 -6.76368,-0.96875 0.62662,-0.56296 1.51207,-0.99891 2.67383,-1.05859 z"
         style="fill:#61ff00;fill-opacity:1;stroke:#000000;stroke-width:3.77953;stroke-linejoin:round;stroke-miterlimit:4;stroke-dasharray:none" />
      <path
         id="path7101"
         d="m 432.34375,230.30078 c -1.5345,0.42245 -3.06967,0.84531 -4.60352,1.26758 a 7.5590552,7.5590552 0 0 0 -5.50781,8.10742 c 2.05468,18.80934 4.1094,37.61841 6.16406,56.42774 a 7.5590552,7.5590552 0 0 0 8.33399,6.69336 c 1.56147,-0.17058 3.12369,-0.34111 4.68555,-0.51172 a 7.5590552,7.5590552 0 0 0 6.69336,-8.33399 c -0.24131,-2.20899 -0.48332,-4.41795 -0.72461,-6.62695 2.9927,2.99316 5.74686,6.27507 8.71484,9.90234 a 7.5590552,7.5590552 0 0 0 6.66992,2.72656 c 1.8169,-0.19847 3.63216,-0.39743 5.44727,-0.5957 a 7.5590552,7.5590552 0 0 0 5.10351,-12.20898 c -1.57408,-1.98552 -3.22576,-3.91348 -4.86719,-5.71289 a 7.5590552,7.5590552 0 0 0 -0.0527,-0.0586 c -3.13109,-3.36187 -6.56886,-6.80523 -10.3125,-9.94922 3.02178,-3.82414 6.09483,-7.59174 8.9375,-11.60546 a 7.5590552,7.5590552 0 0 0 -6.98828,-11.88282 c -1.45266,0.1587 -2.90422,0.31825 -4.35352,0.47657 a 7.5590552,7.5590552 0 0 0 -5.46875,3.32031 l -0.0547,0.082 -0.0274,0.0391 c -1.9334,2.86385 -3.81909,5.5415 -5.7207,8.24414 -0.84956,-7.77802 -1.69919,-15.556 -2.54883,-23.33398 a 7.5590552,7.5590552 0 0 0 -9.51953,-6.4668 z"
         style="fill:#00ff78;fill-opacity:1;stroke:#000000;stroke-width:3.77953;stroke-linejoin:round;stroke-miterlimit:4;stroke-dasharray:none" />
      <path
         id="path7103"
         d="m 488.62305,231.98633 c -1.58393,0.17109 -3.1666,0.34284 -4.74805,0.51367 a 7.5590552,7.5590552 0 0 0 -6.73633,7.12109 c -0.97752,18.71982 -1.95605,37.44008 -2.93359,56.16016 a 7.5590552,7.5590552 0 0 0 5.53711,7.68164 c 5.02613,1.38737 10.10642,2.14611 15.01367,2.58594 a 7.5590552,7.5590552 0 0 0 0.11133,0.008 c 5.81229,0.43555 12.92171,-0.40189 18.74414,-4.63867 4.67613,-3.34782 7.53825,-8.26659 8.95508,-13.0625 1.74348,-5.86111 1.76339,-11.99873 0.68945,-17.60352 a 7.5590552,7.5590552 0 0 0 -0.0176,-0.0898 c -1.10086,-5.39544 -4.13258,-11.72497 -10.1914,-15.20899 -5.20923,-3.01988 -11.30214,-3.60419 -16.73438,-2.70117 0.22382,-4.28524 0.44811,-8.57044 0.67188,-12.85547 a 7.5590552,7.5590552 0 0 0 -8.36133,-7.91015 z m 24.42383,23.46679 c 0.009,0.005 0.0186,0.007 0.0273,0.0117 l -0.0371,-0.0195 c 0.004,0.002 0.006,0.006 0.01,0.008 z m 0.56445,45.96485 c -0.0153,0.011 -0.0257,0.0262 -0.041,0.0371 l 0.0742,-0.0547 c -0.0104,0.008 -0.0228,0.01 -0.0332,0.0176 z m -15.56445,-31.38281 c 0.21095,-0.007 0.47033,-0.003 0.90624,0.0137 a 7.5590552,7.5590552 0 0 0 0.0879,0.004 c 1.77988,0.047 3.21111,0.91955 3.73046,1.9668 a 7.5590552,7.5590552 0 0 0 0.0957,0.18945 c 1.1165,2.10157 1.25534,4.82406 0.83789,8.58399 -0.40679,3.10719 -1.65938,5.47173 -3.375,6.58789 -1.05281,0.68421 -2.77465,0.99077 -5.28906,0.71094 a 7.5590552,7.5590552 0 0 0 -0.26563,-0.0254 c -0.0955,-0.007 -0.20995,-0.0478 -0.30469,-0.0566 0.30592,-5.85408 0.61209,-11.70822 0.91797,-17.5625 0.82858,-0.22535 1.66729,-0.39809 2.49805,-0.40821 a 7.5590552,7.5590552 0 0 0 0.16016,-0.004 z"
         style="fill:#00ffcf;fill-opacity:1;stroke:#000000;stroke-width:3.77953;stroke-linejoin:round;stroke-miterlimit:4;stroke-dasharray:none" />
      <path
         id="path7105"
         d="m 552.7793,250.59375 c -1.23466,-0.033 -2.46408,0.0336 -3.67774,0.17187 -8.21601,0.72484 -16.26895,5.71707 -20.03906,13.53516 -3.50991,7.06812 -3.37375,15.10156 -1.61914,21.72266 a 7.5590552,7.5590552 0 0 0 0.0176,0.0664 c 1.8095,6.58696 6.33186,13.39813 13.51953,16.63282 6.36478,2.9252 13.63146,2.8148 19.67773,0.89648 a 7.5590552,7.5590552 0 0 0 0.0156,-0.004 c 6.27814,-2.00661 12.02873,-6.82955 14.66406,-13.32812 2.69682,-6.46204 2.65864,-13.5597 1.30469,-19.60156 a 7.5590552,7.5590552 0 0 0 -0.01,-0.041 c -1.5134,-6.58545 -5.64737,-13.51502 -12.55664,-17.11719 -3.51365,-1.86796 -7.42146,-2.82993 -11.29687,-2.93359 z m 11.29687,2.93359 c 0.0158,0.008 0.033,0.013 0.0488,0.0215 l -0.0801,-0.043 c 0.0115,0.006 0.0197,0.0155 0.0312,0.0215 z m 11.26172,36.75977 c -0.009,0.0224 -0.0121,0.046 -0.0215,0.0684 l 0.041,-0.10352 c -0.005,0.0126 -0.0144,0.0226 -0.0195,0.0352 z m -34.35742,12.43555 c -0.0171,-0.008 -0.0357,-0.01 -0.0527,-0.0176 l 0.084,0.0371 c -0.0115,-0.005 -0.0197,-0.0144 -0.0312,-0.0195 z M 529.0625,264.30078 c 0.0107,-0.0215 0.0127,-0.045 0.0234,-0.0664 l -0.0586,0.11718 c 0.009,-0.0189 0.0261,-0.0319 0.0352,-0.0508 z m 20.03906,-13.53516 c 0.029,-0.003 0.0569,-0.0151 0.0859,-0.0176 l -0.27344,0.0273 c 0.0618,-0.007 0.12561,-0.003 0.1875,-0.01 z m 2.22461,17.89258 c 1.4498,-0.16792 2.89746,0.46191 3.66797,1.52735 a 7.5590552,7.5590552 0 0 0 0.17774,0.23633 c 1.62349,2.06871 2.33263,5.27746 2.29882,9.2832 -0.0674,2.95888 -0.91336,5.14694 -2.20898,6.26953 -1.58665,1.26547 -3.77329,1.39427 -5.46289,0.31445 -1.44722,-0.97176 -2.58363,-2.995 -3.10938,-5.89844 a 7.5590552,7.5590552 0 0 0 -0.008,-0.0469 c -0.58395,-3.10923 -0.54543,-5.86051 0.22266,-8.19141 0.59036,-1.75669 1.70641,-2.86541 2.82031,-3.1875 a 7.5590552,7.5590552 0 0 0 0.16601,-0.0508 c 0.35649,-0.11196 0.76812,-0.19431 1.23829,-0.23633 a 7.5590552,7.5590552 0 0 0 0.19726,-0.0195 z"
         style="fill:#00f1ff;fill-opacity:1;stroke:#000000;stroke-width:3.77953;stroke-linejoin:round;stroke-miterlimit:4;stroke-dasharray:none" />
      <path
         id="path7107"
         d="m 587.16992,230.42773 c -1.54506,0.38086 -3.09053,0.76144 -4.63672,1.14258 a 7.5590552,7.5590552 0 0 0 -5.72461,7.96289 c 1.30052,15.7017 2.54706,31.43701 3.9043,47.16016 a 7.5590552,7.5590552 0 0 0 0.041,0.36719 c 0.3591,2.64349 1.09657,8.50801 5.93164,12.16015 a 7.5590552,7.5590552 0 0 0 0.0976,0.0723 c 4.29983,3.14161 9.42237,3.47675 12.61328,3.55469 a 7.5590552,7.5590552 0 0 0 7.71485,-6.89649 c 0.0931,-1.06244 0.18621,-2.12462 0.27929,-3.1875 a 7.5590552,7.5590552 0 0 0 -5.6914,-7.99219 c -0.58912,-0.14765 -0.96094,-0.55664 -0.96094,-0.55664 a 7.5590552,7.5590552 0 0 0 -0.10547,-0.33007 c -0.80572,-2.35767 -0.54481,-4.74418 -0.98828,-8.52735 l 0.0254,0.26172 -3.1582,-38.4707 a 7.5590552,7.5590552 0 0 0 -9.3418,-6.72071 z"
         style="fill:#008aff;fill-opacity:1;stroke:#000000;stroke-width:3.77953;stroke-linejoin:round;stroke-miterlimit:4;stroke-dasharray:none" />
      <path
         id="path7109"
         d="m 622.67969,237.51367 -4.76563,0.32031 a 7.5590552,7.5590552 0 0 0 -7.01953,6.85743 c -1.08559,11.93613 -2.25238,23.91358 -3.27148,35.90234 a 7.5590552,7.5590552 0 0 0 -0.0195,0.29492 c -0.17263,3.77783 -0.2832,10.01023 3.48828,15.16797 a 7.5590552,7.5590552 0 0 0 0.0488,0.0684 c 3.71139,4.95959 9.44897,6.72157 13.77149,7.27344 3.59132,0.5195 7.58161,0.66378 11.63281,-0.13282 a 7.5590552,7.5590552 0 0 0 6.07227,-8.07421 c -0.0658,-0.75571 -0.13107,-1.5132 -0.19727,-2.27344 a 7.5590552,7.5590552 0 0 0 -8.13281,-6.87891 c -2.46003,0.19618 -4.3337,0.0498 -5.74414,-0.45508 -0.45868,-0.20112 -0.66678,-0.46159 -0.71485,-0.68164 a 7.5590552,7.5590552 0 0 0 -0.10742,-0.42968 c -0.83436,-2.97108 0.0549,-5.52816 0.35157,-10.15821 l -0.0156,0.21289 c 0.19082,-2.06643 0.38145,-4.13283 0.57227,-6.19922 2.56121,0.23643 5.12253,0.47249 7.68359,0.70899 a 7.5590552,7.5590552 0 0 0 8.22266,-6.83203 c 0.0788,-0.8541 0.15888,-1.71047 0.23828,-2.57031 a 7.5590552,7.5590552 0 0 0 -6.83203,-8.22266 l -7.6836,-0.70899 0.45703,-4.95117 a 7.5590552,7.5590552 0 0 0 -8.03515,-8.23828 z m 2.23242,65.88477 c -0.0242,-0.004 -0.052,-0.002 -0.0762,-0.006 l 0.1582,0.0215 c -0.0256,-0.003 -0.0563,-0.0123 -0.082,-0.0156 z"
         style="fill:#1b00ff;fill-opacity:1;stroke:#000000;stroke-width:3.77953;stroke-linejoin:round;stroke-miterlimit:4;stroke-dasharray:none" />
    </g>
  </g>
</svg>
